# xmcd CD database file
#
# Track frame offsets:
#	151
#	12255
#	26475
#	44014
#	55945
#	69598
#	90733
#	107416
#	122062
#	141328
#	157742
#	170369
#	188952
#	204623
#	218152
#	234474
#	249065
#	260567
#	275677
#	291721
#
# Disc length: 4078 seconds
#
# Revision: 0
# Processed by: cddbd v1.4PL0 Copyright (c) Steve Scherf et al.
# Submitted via: CDex 1.40Release
#
DISCID=280fec14
DTITLE=Kenny Rogers - Complete - CD 5 - Chart Statistics
DYEAR=1998
DGENRE=Country
TTITLE0=Reuben James
TTITLE1=Morgana Jones
TTITLE2=Lady
TTITLE3=Grey Beard
TTITLE4=You And Me
TTITLE5=Let Me Sing For You
TTITLE6=Don't Fall In Love With A Dreamer
TTITLE7=Bad Enough
TTITLE8=No Good Texas Rounder
TTITLE9=You Decorated My Life
TTITLE10=Why Don't We Go Somewhere And Love
TTITLE11=The Fool In Me
TTITLE12=No Dreams
TTITLE13=Ghost Of Another Man
TTITLE14=If You Can Lie A Little Bit
TTITLE15=That's The Way It Could Have Been
TTITLE16=Makes Me Wonder If I Ever Said Goodbye
TTITLE17=The Buckaroos
TTITLE18=Am I Too Late
TTITLE19=What's Wrong With Us Today
EXTD=YEAR: 1998 ID3G: 2
EXTT0=
EXTT1=
EXTT2=
EXTT3=
EXTT4=
EXTT5=
EXTT6=
EXTT7=
EXTT8=
EXTT9=
EXTT10=
EXTT11=
EXTT12=
EXTT13=
EXTT14=
EXTT15=
EXTT16=
EXTT17=
EXTT18=
EXTT19=
PLAYORDER=
